<?xml version="1.0" standalone="no"?><!DOCTYPE svg PUBLIC "-//W3C//DTD SVG 1.1//EN" "http://www.w3.org/Graphics/SVG/1.1/DTD/svg11.dtd"><svg t="1665646671638" class="icon" viewBox="0 0 1266 1024" version="1.1" xmlns="http://www.w3.org/2000/svg" p-id="3658" xmlns:xlink="http://www.w3.org/1999/xlink" width="247.265625" height="200"><path d="M1266.595857 837.570564c0 86.486573-52.082214 164.082326-153.513667 184.02613a129.435805 129.435805 0 0 1-78.96224-9.461631l-171.935307-79.948188a570.223271 570.223271 0 0 0-228.878066-52.099511c-78.564403 1.470272-157.405562 18.836776-228.878066 52.099511l-171.952604 79.913593a129.435805 129.435805 0 0 1-78.96224 9.461631C52.082214 1001.618296 0 924.057137 0 837.570564a235.554829 235.554829 0 0 1 19.372992-92.142794c88.302791-213.812105 210.058588-416.692307 367.412258-596.89573C434.024216 94.42604 516.169163 3.701625 632.735766 0.034595h1.124325c116.566603 3.667031 198.728847 94.391445 245.967813 148.497445 157.405562 180.186126 279.09217 383.083625 367.394961 596.861135a235.554829 235.554829 0 0 1 19.372992 92.177389zM633.860091 0z" p-id="3659"></path></svg>